<?xml version="1.0" standalone="no"?>
<!DOCTYPE svg PUBLIC "-//W3C//DTD SVG 20010904//EN"
 "http://www.w3.org/TR/2001/REC-SVG-20010904/DTD/svg10.dtd">
<svg version="1.0" xmlns="http://www.w3.org/2000/svg"
 width="700.000000pt" height="700.000000pt" viewBox="0 0 700.000000 700.000000"
 preserveAspectRatio="xMidYMid meet">
<metadata>
Created by potrace 1.14, written by Peter Selinger 2001-2017
</metadata>
<g transform="translate(0.000000,700.000000) scale(0.100000,-0.100000)"
fill="#000000" stroke="none">
<path d="M1884 6971 c-92 -24 -121 -49 -326 -280 -111 -124 -211 -237 -223
-249 l-22 -24 -159 53 -159 54 -130 0 c-149 0 -214 -17 -326 -84 -84 -50 -286
-269 -331 -359 -65 -131 -26 -254 110 -340 26 -17 362 -193 747 -392 385 -199
701 -363 702 -364 2 -2 -411 -584 -425 -598 -7 -7 -123 29 -339 105 -392 138
-389 137 -478 137 -150 0 -269 -53 -376 -169 -121 -129 -156 -195 -146 -278 6
-55 46 -116 104 -158 23 -16 184 -122 357 -234 l315 -204 -25 -48 c-121 -239
-23 -519 209 -598 l52 -18 7 -113 c17 -273 91 -608 188 -857 37 -94 65 -123
121 -123 52 0 99 43 99 90 0 17 -27 110 -60 208 -80 239 -120 440 -145 738
l-6 71 31 13 c17 7 56 28 87 47 31 18 60 30 63 26 69 -77 492 -577 509 -601
61 -86 185 -116 280 -67 53 26 180 161 225 237 33 56 66 185 65 252 -1 92 -34
176 -199 513 -90 183 -162 334 -159 336 2 2 125 113 273 247 l269 244 22 -28
c13 -16 92 -131 176 -257 172 -256 188 -271 261 -250 49 15 81 62 74 108 -3
21 -72 133 -186 300 l-181 268 63 60 c178 170 553 504 559 497 18 -19 629
-1343 639 -1385 7 -27 11 -83 8 -131 -6 -122 -38 -182 -177 -326 l-109 -115
-28 15 c-17 9 -88 103 -190 255 -89 132 -174 250 -189 262 -18 16 -39 23 -70
23 -57 0 -95 -41 -95 -102 0 -35 20 -69 163 -281 171 -255 231 -326 300 -357
61 -28 145 -26 206 4 81 42 295 279 342 381 48 103 62 176 56 300 -5 124 -15
157 -101 342 -31 67 -56 127 -56 133 0 6 95 118 210 248 116 130 219 254 230
277 30 63 42 142 30 205 -18 93 -55 145 -200 272 -156 138 -187 153 -310 153
-127 -1 -172 -27 -309 -182 -35 -40 -67 -73 -71 -73 -6 0 -115 227 -115 240 0
3 74 73 165 156 242 220 330 325 422 501 57 107 44 103 209 78 170 -26 398
-81 512 -124 l27 -11 -36 -47 c-45 -58 -68 -111 -84 -188 -33 -158 37 -331
226 -565 47 -58 122 -151 168 -208 142 -177 195 -286 182 -375 -5 -35 -25 -72
-84 -154 -189 -268 -267 -451 -266 -628 1 -155 65 -265 193 -334 83 -44 137
-59 281 -76 151 -19 210 -35 272 -74 61 -39 95 -98 114 -202 9 -46 28 -109 43
-139 49 -102 158 -188 301 -236 83 -29 310 -26 400 4 35 11 66 20 68 18 5 -6
-36 -163 -74 -281 -49 -151 -94 -256 -176 -417 l-70 -137 -67 53 c-240 192
-479 287 -758 303 -296 16 -572 -82 -751 -265 -23 -25 -70 -84 -104 -134 -143
-209 -333 -316 -623 -349 -170 -20 -399 12 -519 73 -22 11 -77 47 -121 78
-228 165 -476 231 -693 185 -263 -55 -447 -251 -520 -552 -15 -62 -29 -113
-32 -113 -3 0 -54 46 -113 101 -128 120 -269 282 -358 410 -99 143 -118 161
-167 163 -59 1 -102 -41 -102 -99 0 -34 11 -57 63 -133 190 -279 455 -548 733
-747 747 -535 1714 -693 2604 -424 1018 307 1807 1156 2045 2199 135 592 86
1213 -140 1776 -391 974 -1251 1670 -2278 1844 -66 11 -134 20 -152 20 -19 0
-36 3 -39 8 -2 4 3 57 11 117 17 131 12 340 -12 430 -49 186 -153 296 -322
340 -94 25 -291 20 -442 -11 -211 -42 -336 -93 -477 -193 -153 -108 -264 -229
-453 -497 l-113 -162 -122 40 c-66 22 -125 44 -130 49 -5 4 29 49 74 99 106
118 134 178 135 281 0 68 -4 84 -35 145 -30 58 -54 84 -162 179 -69 62 -148
122 -174 134 -51 24 -158 36 -210 22z m118 -214 c37 -17 198 -159 198 -175 0
-7 -7 -26 -15 -41 -18 -35 -261 -305 -278 -309 -19 -4 -357 112 -357 123 1 16
332 385 360 400 31 17 57 18 92 2z m1971 -82 c62 -22 109 -78 133 -158 23 -77
26 -340 5 -456 -40 -222 -142 -395 -349 -596 -59 -57 -648 -593 -1309 -1192
-797 -722 -1218 -1097 -1250 -1113 -70 -35 -150 -39 -203 -9 -63 36 -85 79
-85 169 0 54 6 87 21 120 17 36 1862 2645 1977 2795 121 158 258 278 391 344
202 102 521 147 669 96z m-2296 -596 l702 -234 -160 -225 c-88 -124 -199 -277
-246 -341 l-86 -117 -31 18 c-17 10 -339 176 -716 370 -377 194 -700 364 -717
377 -54 40 -55 39 115 235 105 122 190 160 342 154 93 -4 108 -8 797 -237z
m3591 -578 c743 -373 1300 -1107 1465 -1931 42 -211 51 -304 52 -545 0 -262
-4 -278 -87 -349 -145 -124 -471 -88 -547 61 -10 21 -24 70 -31 110 -16 98
-66 198 -129 260 -93 92 -219 141 -416 163 -149 16 -225 41 -268 89 -43 48
-54 95 -40 176 20 117 102 276 235 460 124 169 145 287 82 453 -42 113 -107
210 -280 417 -204 245 -269 357 -269 465 1 43 7 76 19 99 20 38 94 121 107
121 5 0 53 -22 107 -49z m-1105 -662 c40 -21 187 -161 187 -177 -1 -34 -39
-84 -189 -254 -85 -95 -157 -174 -160 -176 -4 -1 -43 77 -88 174 l-83 177 26
31 c71 85 200 219 218 226 30 12 64 12 89 -1z m-3296 -520 c159 -55 300 -105
315 -111 l27 -10 -131 -181 c-72 -100 -143 -198 -157 -218 l-26 -36 -204 135
c-113 73 -265 172 -338 219 -73 48 -133 90 -133 95 0 16 110 142 141 161 49
32 100 46 161 47 48 0 106 -17 345 -101z m1389 -1408 c32 -107 2 -198 -100
-306 l-66 -70 -23 30 c-12 17 -131 158 -264 313 -134 156 -243 287 -243 292 0
7 129 129 305 288 l90 82 143 -288 c78 -158 149 -311 158 -341z m3437 -1176
c189 -33 394 -134 547 -270 l49 -44 -82 -108 c-100 -132 -348 -384 -477 -483
-288 -222 -620 -394 -935 -486 -465 -135 -966 -149 -1426 -40 -298 70 -606
201 -855 361 l-84 55 0 52 c0 29 9 95 20 147 59 287 240 444 495 428 146 -9
271 -60 420 -172 39 -29 93 -64 120 -78 159 -79 407 -118 627 -98 155 15 292
51 413 111 171 83 263 167 395 356 103 147 258 240 458 274 79 13 225 11 315
-5z"/>
<path d="M3373 6399 c-63 -18 -90 -87 -58 -148 16 -31 48 -47 111 -54 56 -6
111 -34 156 -79 39 -39 78 -106 78 -134 0 -61 72 -122 130 -109 43 9 80 58 80
104 0 75 -50 184 -123 267 -97 110 -273 183 -374 153z"/>
</g>
</svg>
